<svg width="32" height="32" viewBox="0 0 32 32" fill="none" xmlns="http://www.w3.org/2000/svg">
  <rect width="32" height="32" rx="6" fill="#155DFC"/>
  <path d="M17.808 9.404C18.1781 9.589 18.5862 9.685 19 9.685C19.4138 9.685 19.8219 9.589 20.192 9.404L23.5 7.75C23.65 7.675 23.82 7.65 23.985 7.68C24.15 7.71 24.3 7.79 24.41 7.91C24.52 8.03 24.59 8.18 24.6 8.35C24.61 8.52 24.56 8.68 24.46 8.82L24.5 8.85V21.5C24.5 21.68 24.45 21.86 24.35 22.01C24.25 22.16 24.1 22.28 23.93 22.35L20.192 24.22C19.8219 24.405 19.4138 24.5 19 24.5C18.5862 24.5 18.1781 24.405 17.808 24.22L14.192 22.41C13.8219 22.225 13.4138 22.13 13 22.13C12.5862 22.13 12.1781 22.225 11.808 22.41L8.5 24.06C8.35 24.135 8.18 24.16 8.015 24.13C7.85 24.1 7.7 24.02 7.59 23.9C7.48 23.78 7.41 23.63 7.4 23.46C7.39 23.29 7.44 23.13 7.54 22.99L7.5 22.96V10.31C7.5 10.13 7.55 9.95 7.65 9.8C7.75 9.65 7.9 9.53 8.07 9.46L11.808 7.594C12.1781 7.409 12.5862 7.314 13 7.314C13.4138 7.314 13.8219 7.409 14.192 7.594L17.808 9.404Z" fill="white"/>
  <path d="M19 9.685V24.5" stroke="#155DFC" stroke-width="1.5" stroke-linecap="round"/>
  <path d="M13 7.314V22.13" stroke="#155DFC" stroke-width="1.5" stroke-linecap="round"/>
</svg>
